<svg width="25" height="24" viewBox="0 0 25 24" fill="none" xmlns="http://www.w3.org/2000/svg">
<path d="M12.499 16C14.1558 16 15.499 14.6569 15.499 13C15.499 11.3431 14.1558 10 12.499 10C10.8421 10 9.49896 11.3431 9.49896 13C9.49896 14.6569 10.8421 16 12.499 16Z" stroke="white" stroke-opacity="0.5" stroke-width="1.5"/>
<path d="M2.49896 13.364C2.49896 10.299 2.49896 8.76699 3.24796 7.66699C3.57312 7.18864 3.98981 6.77943 4.47396 6.46299C5.19396 5.98999 6.09596 5.82099 7.47696 5.76099C8.13596 5.76099 8.70296 5.27099 8.83196 4.63599C8.93055 4.17085 9.18669 3.75402 9.55711 3.45594C9.92753 3.15785 10.3895 2.99679 10.865 2.99999H14.133C15.121 2.99999 15.972 3.68499 16.166 4.63599C16.295 5.27099 16.862 5.76099 17.521 5.76099C18.901 5.82099 19.803 5.99099 20.524 6.46299C21.009 6.78099 21.426 7.18999 21.75 7.66699C22.499 8.76699 22.499 10.299 22.499 13.364C22.499 16.428 22.499 17.96 21.75 19.061C21.4242 19.5389 21.0077 19.948 20.524 20.265C19.403 21 17.842 21 14.721 21H10.277C7.15596 21 5.59496 21 4.47396 20.265C3.9905 19.9476 3.57425 19.5382 3.24896 19.06C3.03222 18.7361 2.87226 18.3776 2.77596 18M19.499 9.99999H18.499" stroke="white" stroke-opacity="0.5" stroke-width="1.5" stroke-linecap="round"/>
</svg>
