<svg width="34" height="35" viewBox="0 0 34 35" fill="none" xmlns="http://www.w3.org/2000/svg">
<path d="M8.79256 29.0541C8.79043 28.5876 8.68303 28.1275 8.47835 27.7082L12.9821 23.2045V19.6277H10.8873V22.3362L6.9963 26.2272C6.57703 26.0224 6.11703 25.9147 5.65042 25.912C5.02896 25.912 4.42146 26.0963 3.90474 26.4415C3.38801 26.7868 2.98528 27.2775 2.74745 27.8517C2.50963 28.4258 2.44741 29.0576 2.56865 29.6671C2.68989 30.2766 2.98915 30.8365 3.42859 31.276C3.86802 31.7154 4.4279 32.0146 5.03741 32.1359C5.64693 32.2571 6.27871 32.1949 6.85287 31.9571C7.42702 31.7193 7.91775 31.3165 8.26302 30.7998C8.60828 30.2831 8.79256 29.6756 8.79256 29.0541ZM4.60304 29.0541C4.60304 28.847 4.66446 28.6445 4.77955 28.4722C4.89464 28.3 5.05822 28.1657 5.2496 28.0865C5.44099 28.0072 5.65158 27.9864 5.85475 28.0269C6.05792 28.0673 6.24455 28.167 6.39103 28.3135C6.53751 28.46 6.63726 28.6466 6.67768 28.8498C6.71809 29.053 6.69735 29.2635 6.61807 29.4549C6.5388 29.6463 6.40455 29.8099 6.23231 29.925C6.06007 30.0401 5.85757 30.1015 5.65042 30.1015C5.37263 30.1015 5.10623 29.9912 4.90981 29.7947C4.71338 29.5983 4.60304 29.3319 4.60304 29.0541ZM20.3138 29.0541C20.3118 28.4064 20.1094 27.7751 19.7344 27.247C19.3593 26.7189 18.8299 26.3199 18.219 26.1047V19.6277H16.1242V26.1047C15.5826 26.2976 15.1043 26.6358 14.7418 27.0821C14.3793 27.5285 14.1465 28.0659 14.0687 28.6356C13.991 29.2054 14.0714 29.7855 14.3011 30.3127C14.5307 30.8398 14.9009 31.2937 15.3711 31.6247C15.8413 31.9558 16.3934 32.1512 16.9671 32.1896C17.5409 32.2281 18.1141 32.1081 18.6243 31.8427C19.1344 31.5774 19.5618 31.177 19.8598 30.6852C20.1577 30.1934 20.3148 29.6291 20.3138 29.0541ZM16.1242 29.0541C16.1242 28.847 16.1857 28.6445 16.3007 28.4722C16.4158 28.3 16.5794 28.1657 16.7708 28.0865C16.9622 28.0072 17.1728 27.9864 17.376 28.0269C17.5791 28.0673 17.7657 28.167 17.9122 28.3135C18.0587 28.46 18.1585 28.6466 18.1989 28.8498C18.2393 29.053 18.2185 29.2635 18.1393 29.4549C18.06 29.6463 17.9258 29.8099 17.7535 29.925C17.5813 30.0401 17.3788 30.1015 17.1716 30.1015C16.8938 30.1015 16.6274 29.9912 16.431 29.7947C16.2346 29.5983 16.1242 29.3319 16.1242 29.0541ZM31.835 29.0541C31.8341 28.221 31.5028 27.4223 30.9137 26.8332C30.3246 26.2441 29.5259 25.9128 28.6928 25.912C28.1911 25.9156 27.6976 26.0406 27.2548 26.2765L23.4559 22.3467V19.6277H21.3611V23.193L25.8146 27.8015C25.6279 28.2295 25.5391 28.6939 25.5545 29.1607C25.5699 29.6274 25.6892 30.0849 25.9037 30.4997C26.1182 30.9146 26.4225 31.2764 26.7945 31.5588C27.1665 31.8412 27.5968 32.0371 28.054 32.1322C28.5112 32.2274 28.9839 32.2193 29.4377 32.1088C29.8914 31.9982 30.3148 31.7878 30.677 31.4929C31.0392 31.1981 31.331 30.8262 31.5313 30.4043C31.7317 29.9824 31.8354 29.5211 31.835 29.0541ZM27.6454 29.0541C27.6454 28.847 27.7069 28.6445 27.8219 28.4722C27.937 28.3 28.1006 28.1657 28.292 28.0865C28.4834 28.0072 28.694 27.9864 28.8971 28.0269C29.1003 28.0673 29.2869 28.167 29.4334 28.3135C29.5799 28.46 29.6797 28.6466 29.7201 28.8498C29.7605 29.053 29.7397 29.2635 29.6605 29.4549C29.5812 29.6463 29.4469 29.8099 29.2747 29.925C29.1025 30.0401 28.9 30.1015 28.6928 30.1015C28.415 30.1015 28.1486 29.9912 27.9522 29.7947C27.7558 29.5983 27.6454 29.3319 27.6454 29.0541Z" fill="#191919"/>
<path d="M27.6455 19.6275V21.7223H29.7402V19.6275C29.7382 19.0306 29.608 18.4411 29.3582 17.899C29.1085 17.3569 28.7451 16.8748 28.2928 16.4853C28.7451 16.0959 29.1085 15.6138 29.3582 15.0717C29.608 14.5296 29.7382 13.9401 29.7402 13.3432V12.2958C29.7375 9.79662 28.7434 7.40058 26.9762 5.63339C25.209 3.86619 22.813 2.87216 20.3138 2.86938L14.0295 2.86938C11.5303 2.87216 9.13428 3.86619 7.36708 5.63339C5.59988 7.40058 4.60585 9.79662 4.60308 12.2958V13.3432C4.60507 13.9401 4.73535 14.5296 4.98509 15.0717C5.23483 15.6138 5.5982 16.0959 6.05056 16.4853C5.5982 16.8748 5.23483 17.3569 4.98509 17.899C4.73535 18.4411 4.60507 19.0306 4.60308 19.6275V21.7223H6.69784V19.6275C6.69839 19.0721 6.91927 18.5396 7.31199 18.1469C7.70472 17.7542 8.23721 17.5333 8.7926 17.5327H25.5507C26.1061 17.5333 26.6386 17.7542 27.0313 18.1469C27.424 18.5396 27.6449 19.0721 27.6455 19.6275ZM6.69784 13.3432V12.2958C6.70099 10.5346 7.33759 8.83325 8.49137 7.50256C9.64515 6.17187 11.2391 5.30062 12.9821 5.04794V7.05891H15.0769V4.96415L19.2664 4.96415V8.10629C19.2673 8.93939 19.5986 9.73812 20.1877 10.3272C20.7767 10.9163 21.5755 11.2476 22.4086 11.2484H24.5033V9.15367H22.4086C22.1308 9.15367 21.8644 9.04332 21.668 8.8469C21.4715 8.65048 21.3612 8.38408 21.3612 8.10629V5.04794C23.1042 5.30062 24.6982 6.17187 25.8519 7.50256C27.0057 8.83325 27.6423 10.5346 27.6455 12.2958V13.3432C27.6449 13.8986 27.424 14.4311 27.0313 14.8238C26.6386 15.2165 26.1061 15.4374 25.5507 15.438H21.3612V13.3432H19.2664V15.438L15.0769 15.438V13.3432C15.0761 12.5101 14.7447 11.7114 14.1557 11.1223C13.5666 10.5332 12.7678 10.2019 11.9347 10.2011H9.83998V12.2958H11.9347C12.2125 12.2958 12.4789 12.4062 12.6754 12.6026C12.8718 12.799 12.9821 13.0654 12.9821 13.3432V15.438H8.7926C8.23721 15.4374 7.70472 15.2165 7.31199 14.8238C6.91927 14.4311 6.69839 13.8986 6.69784 13.3432Z" fill="#191919"/>
</svg>
