<svg width="25" height="20" viewBox="0 0 25 20" fill="none" xmlns="http://www.w3.org/2000/svg">
<path d="M4.7001 1.35815H20.3001C21.2549 1.35815 22.1705 1.73744 22.8457 2.41257C23.5208 3.0877 23.9001 4.00338 23.9001 4.95815V15.7582C23.9001 16.7129 23.5208 17.6286 22.8457 18.3037C22.1705 18.9789 21.2549 19.3582 20.3001 19.3582H4.7001C3.74532 19.3582 2.82964 18.9789 2.15451 18.3037C1.47938 17.6286 1.1001 16.7129 1.1001 15.7582V4.95815C1.1001 4.00338 1.47938 3.0877 2.15451 2.41257C2.82964 1.73744 3.74532 1.35815 4.7001 1.35815ZM4.7001 2.55815C4.1001 2.55815 3.5721 2.76215 3.1641 3.12215L12.5001 9.15815L21.8361 3.12215C21.4281 2.76215 20.9001 2.55815 20.3001 2.55815H4.7001ZM12.5001 10.6102L2.4561 4.09415C2.3601 4.35815 2.3001 4.65815 2.3001 4.95815V15.7582C2.3001 16.3947 2.55295 17.0051 3.00304 17.4552C3.45313 17.9053 4.06358 18.1582 4.7001 18.1582H20.3001C20.9366 18.1582 21.5471 17.9053 21.9972 17.4552C22.4472 17.0051 22.7001 16.3947 22.7001 15.7582V4.95815C22.7001 4.65815 22.6401 4.35815 22.5441 4.09415L12.5001 10.6102Z" fill="#191919" stroke="#191919"/>
</svg>
