<svg width="25" height="24" viewBox="0 0 25 24" fill="none" xmlns="http://www.w3.org/2000/svg">
<path d="M4.7001 3H20.3001C21.2549 3 22.1706 3.37928 22.8457 4.05442C23.5208 4.72955 23.9001 5.64522 23.9001 6.6V17.4C23.9001 18.3548 23.5208 19.2705 22.8457 19.9456C22.1706 20.6207 21.2549 21 20.3001 21H4.7001C3.74532 21 2.82964 20.6207 2.15451 19.9456C1.47938 19.2705 1.1001 18.3548 1.1001 17.4V6.6C1.1001 5.64522 1.47938 4.72955 2.15451 4.05442C2.82964 3.37928 3.74532 3 4.7001 3ZM4.7001 4.2C4.1001 4.2 3.5721 4.404 3.1641 4.764L12.5001 10.8L21.8361 4.764C21.4281 4.404 20.9001 4.2 20.3001 4.2H4.7001ZM12.5001 12.252L2.4561 5.736C2.3601 6 2.3001 6.3 2.3001 6.6V17.4C2.3001 18.0365 2.55295 18.647 3.00304 19.0971C3.45313 19.5471 4.06358 19.8 4.7001 19.8H20.3001C20.9366 19.8 21.5471 19.5471 21.9972 19.0971C22.4472 18.647 22.7001 18.0365 22.7001 17.4V6.6C22.7001 6.3 22.6401 6 22.5441 5.736L12.5001 12.252Z" fill="white" stroke="white"/>
</svg>
