<svg width="25" height="25" viewBox="0 0 25 25" fill="none" xmlns="http://www.w3.org/2000/svg">
<g clip-path="url(#clip0_755_2175)">
<path d="M12.5 0.655273C5.87 0.655273 0.5 6.02827 0.5 12.6553C0.5 17.9583 3.938 22.4553 8.705 24.0403C9.305 24.1533 9.525 23.7823 9.525 23.4633C9.525 23.1783 9.515 22.4233 9.51 21.4233C6.172 22.1473 5.468 19.8133 5.468 19.8133C4.922 18.4283 4.133 18.0583 4.133 18.0583C3.046 17.3143 4.217 17.3293 4.217 17.3293C5.422 17.4133 6.055 18.5653 6.055 18.5653C7.125 20.4003 8.864 19.8703 9.55 19.5633C9.658 18.7873 9.967 18.2583 10.31 17.9583C7.645 17.6583 4.844 16.6263 4.844 12.0283C4.844 10.7183 5.309 9.64827 6.079 8.80827C5.944 8.50527 5.539 7.28527 6.184 5.63227C6.184 5.63227 7.189 5.31027 9.484 6.86227C10.444 6.59527 11.464 6.46327 12.484 6.45727C13.504 6.46327 14.524 6.59527 15.484 6.86227C17.764 5.31027 18.769 5.63227 18.769 5.63227C19.414 7.28527 19.009 8.50527 18.889 8.80827C19.654 9.64827 20.119 10.7183 20.119 12.0283C20.119 16.6383 17.314 17.6533 14.644 17.9483C15.064 18.3083 15.454 19.0443 15.454 20.1683C15.454 21.7743 15.439 23.0643 15.439 23.4543C15.439 23.7693 15.649 24.1443 16.264 24.0243C21.065 22.4503 24.5 17.9503 24.5 12.6553C24.5 6.02827 19.127 0.655273 12.5 0.655273Z" fill="#191919"/>
</g>
<defs>
<clipPath id="clip0_755_2175">
<rect width="24" height="24" fill="white" transform="translate(0.5 0.358154)"/>
</clipPath>
</defs>
</svg>
