<svg width="25" height="25" viewBox="0 0 25 25" fill="none" xmlns="http://www.w3.org/2000/svg">
<g clip-path="url(#clip0_755_1329)">
<path d="M12.5 0.655151C5.87 0.655151 0.5 6.02815 0.5 12.6552C0.5 17.9582 3.938 22.4551 8.705 24.0401C9.305 24.1531 9.525 23.7822 9.525 23.4632C9.525 23.1782 9.515 22.4232 9.51 21.4232C6.172 22.1472 5.468 19.8132 5.468 19.8132C4.922 18.4282 4.133 18.0582 4.133 18.0582C3.046 17.3142 4.217 17.3292 4.217 17.3292C5.422 17.4132 6.055 18.5652 6.055 18.5652C7.125 20.4002 8.864 19.8702 9.55 19.5632C9.658 18.7872 9.967 18.2582 10.31 17.9582C7.645 17.6582 4.844 16.6262 4.844 12.0282C4.844 10.7182 5.309 9.64815 6.079 8.80815C5.944 8.50515 5.539 7.28515 6.184 5.63215C6.184 5.63215 7.189 5.31015 9.484 6.86215C10.444 6.59515 11.464 6.46315 12.484 6.45715C13.504 6.46315 14.524 6.59515 15.484 6.86215C17.764 5.31015 18.769 5.63215 18.769 5.63215C19.414 7.28515 19.009 8.50515 18.889 8.80815C19.654 9.64815 20.119 10.7182 20.119 12.0282C20.119 16.6382 17.314 17.6532 14.644 17.9482C15.064 18.3082 15.454 19.0441 15.454 20.1681C15.454 21.7741 15.439 23.0642 15.439 23.4542C15.439 23.7692 15.649 24.1442 16.264 24.0242C21.065 22.4502 24.5 17.9502 24.5 12.6552C24.5 6.02815 19.127 0.655151 12.5 0.655151Z" fill="white"/>
</g>
<defs>
<clipPath id="clip0_755_1329">
<rect width="24" height="24" fill="white" transform="translate(0.5 0.358154)"/>
</clipPath>
</defs>
</svg>
