<svg width="26" height="26" viewBox="0 0 26 26" fill="none" xmlns="http://www.w3.org/2000/svg">
<g clip-path="url(#clip0_168_6926)">
<path d="M17.1949 12.0979C17.1949 13.2944 16.7196 14.4418 15.8736 15.2879C15.0276 16.1339 13.8801 16.6092 12.6836 16.6092C11.4872 16.6092 10.3397 16.1339 9.49369 15.2879C8.64766 14.4418 8.17236 13.2944 8.17236 12.0979V5.78212C8.17236 4.58566 8.64766 3.43819 9.49369 2.59217C10.3397 1.74614 11.4872 1.27084 12.6836 1.27084C13.8801 1.27084 15.0276 1.74614 15.8736 2.59217C16.7196 3.43819 17.1949 4.58566 17.1949 5.78212V12.0979Z" stroke="black" stroke-opacity="0.5" stroke-width="1.80451" stroke-linecap="round" stroke-linejoin="round"/>
<path d="M21.7063 13.0005C21.7082 14.0674 21.4994 15.1242 21.092 16.1102C20.6846 17.0963 20.0865 17.9922 19.3321 18.7466C18.5777 19.5011 17.6818 20.0991 16.6957 20.5065C15.7097 20.914 14.6529 21.1227 13.586 21.1208H11.7815C10.7144 21.1232 9.65741 20.9148 8.67114 20.5075C7.68486 20.1003 6.78874 19.5022 6.03423 18.7477C5.27972 17.9932 4.68167 17.0971 4.27443 16.1108C3.86719 15.1245 3.65877 14.0675 3.66115 13.0005M12.6837 21.1208V24.7298" stroke="black" stroke-opacity="0.5" stroke-width="1.80451" stroke-linecap="round" stroke-linejoin="round"/>
</g>
<defs>
<clipPath id="clip0_168_6926">
<rect width="25.2632" height="25.2632" fill="white" transform="translate(0.0522461 0.368408)"/>
</clipPath>
</defs>
</svg>
