<svg width="31" height="32" viewBox="0 0 31 32" fill="none" xmlns="http://www.w3.org/2000/svg">
<path d="M15.6838 21.0523C17.7766 21.0523 19.4732 19.3557 19.4732 17.2628C19.4732 15.17 17.7766 13.4734 15.6838 13.4734C13.5909 13.4734 11.8943 15.17 11.8943 17.2628C11.8943 19.3557 13.5909 21.0523 15.6838 21.0523Z" stroke="black" stroke-opacity="0.5" stroke-width="1.89474"/>
<path d="M3.05225 17.7226C3.05225 13.851 3.05225 11.9159 3.99835 10.5264C4.40908 9.92219 4.93542 9.40529 5.54698 9.00557C6.45646 8.4081 7.59583 8.19462 9.34025 8.11883C10.1727 8.11883 10.8889 7.49989 11.0518 6.69778C11.1764 6.11025 11.4999 5.58372 11.9678 5.20719C12.4357 4.83066 13.0193 4.62722 13.6198 4.63125H17.7478C18.9958 4.63125 20.0708 5.49652 20.3158 6.69778C20.4788 7.49989 21.195 8.11883 22.0274 8.11883C23.7706 8.19462 24.9099 8.40936 25.8207 9.00557C26.4333 9.40725 26.96 9.92389 27.3693 10.5264C28.3154 11.9159 28.3154 13.851 28.3154 17.7226C28.3154 21.5929 28.3154 23.5281 27.3693 24.9188C26.9579 25.5225 26.4316 26.0392 25.8207 26.4397C24.4047 27.3681 22.4329 27.3681 18.4906 27.3681H12.8771C8.93477 27.3681 6.96298 27.3681 5.54698 26.4397C4.9363 26.0388 4.41051 25.5216 3.99961 24.9176C3.72584 24.5084 3.52379 24.0556 3.40214 23.5786M24.5259 13.4734H23.2628" stroke="black" stroke-opacity="0.5" stroke-width="1.89474" stroke-linecap="round"/>
</svg>
