<svg width="20" height="20" viewBox="0 0 20 20" fill="none" xmlns="http://www.w3.org/2000/svg">
<path d="M13.5716 9.28578C13.5716 10.233 13.1953 11.1414 12.5255 11.8112C11.8557 12.4809 10.9473 12.8572 10.0001 12.8572C9.05294 12.8572 8.14453 12.4809 7.47476 11.8112C6.80499 11.1414 6.42871 10.233 6.42871 9.28578V4.28578C6.42871 3.33858 6.80499 2.43018 7.47476 1.7604C8.14453 1.09063 9.05294 0.714355 10.0001 0.714355C10.9473 0.714355 11.8557 1.09063 12.5255 1.7604C13.1953 2.43018 13.5716 3.33858 13.5716 4.28578V9.28578Z" stroke="white" stroke-opacity="0.5" stroke-width="1.42857" stroke-linecap="round" stroke-linejoin="round"/>
<path d="M17.1432 10.0002C17.1447 10.8449 16.9794 11.6815 16.6569 12.4621C16.3343 13.2428 15.8609 13.952 15.2636 14.5493C14.6664 15.1465 13.9571 15.62 13.1765 15.9425C12.3958 16.2651 11.5592 16.4303 10.7146 16.4288H9.28601C8.44127 16.4307 7.60448 16.2657 6.82367 15.9433C6.04287 15.6209 5.33345 15.1475 4.73612 14.5501C4.1388 13.9528 3.66535 13.2434 3.34295 12.4626C3.02055 11.6818 2.85555 10.845 2.85744 10.0002M10.0003 16.4288V19.286" stroke="white" stroke-opacity="0.5" stroke-width="1.42857" stroke-linecap="round" stroke-linejoin="round"/>
</svg>
