<svg width="40" height="40" viewBox="0 0 40 40" fill="none" xmlns="http://www.w3.org/2000/svg">
<path d="M20 25C22.7614 25 25 22.7614 25 20C25 17.2386 22.7614 15 20 15C17.2386 15 15 17.2386 15 20C15 22.7614 17.2386 25 20 25Z" stroke="white" stroke-opacity="0.5" stroke-width="2.5"/>
<path d="M6.10169 17.7335C6.89002 18.2268 7.39669 19.0702 7.39669 20.0002C7.39669 20.9302 6.89002 21.7735 6.10169 22.2668C5.56669 22.6052 5.22002 22.8735 4.97502 23.1935C4.7085 23.5409 4.51304 23.9374 4.3998 24.3603C4.28655 24.7833 4.25774 25.2244 4.31502 25.6585C4.40169 26.3152 4.79002 26.9885 5.56502 28.3335C6.34335 29.6785 6.73169 30.3502 7.25669 30.7552C7.60408 31.0217 8.00058 31.2171 8.42353 31.3304C8.84648 31.4436 9.2876 31.4724 9.72169 31.4152C10.1217 31.3618 10.5267 31.1985 11.0867 30.9018C11.4875 30.6825 11.9374 30.5687 12.3942 30.571C12.8511 30.5733 13.2998 30.6918 13.6984 30.9152C14.5034 31.3818 14.9817 32.2402 15.015 33.1702C15.0384 33.8035 15.0984 34.2368 15.2534 34.6085C15.4209 35.0132 15.6665 35.3809 15.9762 35.6906C16.2859 36.0003 16.6537 36.246 17.0584 36.4135C17.67 36.6668 18.4467 36.6668 20 36.6668C21.5534 36.6668 22.33 36.6668 22.9417 36.4135C23.3464 36.246 23.7141 36.0003 24.0238 35.6906C24.3335 35.3809 24.5792 35.0132 24.7467 34.6085C24.9 34.2368 24.9617 33.8035 24.985 33.1702C25.0184 32.2402 25.4967 31.3802 26.3017 30.9152C26.7002 30.6918 27.1489 30.5733 27.6058 30.571C28.0626 30.5687 28.5126 30.6825 28.9133 30.9018C29.4733 31.1985 29.88 31.3618 30.28 31.4152C31.1562 31.5304 32.0422 31.293 32.7434 30.7552C33.2684 30.3518 33.6567 29.6785 34.4334 28.3335C34.78 27.7335 35.0484 27.2685 35.2484 26.8785M33.8984 22.2685C33.5081 22.0313 33.1846 21.6989 32.9581 21.3024C32.7316 20.9059 32.6095 20.4584 32.6034 20.0018C32.6034 19.0702 33.11 18.2268 33.8984 17.7318C34.4334 17.3952 34.7783 17.1268 35.025 16.8068C35.2915 16.4594 35.487 16.0629 35.6002 15.64C35.7135 15.217 35.7423 14.7759 35.685 14.3418C35.5983 13.6852 35.21 13.0118 34.435 11.6668C33.6567 10.3218 33.2684 9.65016 32.7434 9.24516C32.396 8.97865 31.9995 8.78318 31.5765 8.66994C31.1536 8.5567 30.7124 8.52789 30.2784 8.58516C29.8784 8.6385 29.4734 8.80183 28.9117 9.0985C28.5111 9.31752 28.0615 9.4312 27.605 9.42887C27.1484 9.42654 26.7 9.30827 26.3017 9.08516C25.9091 8.85167 25.5823 8.52223 25.352 8.12778C25.1217 7.73333 24.9954 7.28681 24.985 6.83016C24.9617 6.19683 24.9017 5.7635 24.7467 5.39183C24.5792 4.98713 24.3335 4.61941 24.0238 4.3097C23.7141 3.99999 23.3464 3.75435 22.9417 3.58683C22.33 3.3335 21.5534 3.3335 20 3.3335C18.4467 3.3335 17.67 3.3335 17.0584 3.58683C16.6537 3.75435 16.2859 3.99999 15.9762 4.3097C15.6665 4.61941 15.4209 4.98713 15.2534 5.39183C15.1 5.7635 15.0384 6.19683 15.015 6.83016C15.0046 7.28681 14.8784 7.73333 14.648 8.12778C14.4177 8.52223 14.0909 8.85167 13.6984 9.08516C13.2998 9.30857 12.8511 9.427 12.3942 9.42933C11.9374 9.43166 11.4875 9.31782 11.0867 9.0985C10.5267 8.80183 10.12 8.6385 9.72002 8.58516C8.84388 8.46995 7.95785 8.70734 7.25669 9.24516C6.73335 9.65016 6.34335 10.3218 5.56669 11.6668C5.22002 12.2668 4.95169 12.7318 4.75169 13.1218" stroke="white" stroke-opacity="0.5" stroke-width="2.5" stroke-linecap="round"/>
</svg>
