<svg width="40" height="40" viewBox="0 0 40 40" fill="none" xmlns="http://www.w3.org/2000/svg">
<path d="M20 25C22.7614 25 25 22.7614 25 20C25 17.2386 22.7614 15 20 15C17.2386 15 15 17.2386 15 20C15 22.7614 17.2386 25 20 25Z" stroke="black" stroke-opacity="0.5" stroke-width="2.5"/>
<path d="M6.10169 17.7333C6.89002 18.2267 7.39669 19.07 7.39669 20C7.39669 20.93 6.89002 21.7733 6.10169 22.2667C5.56669 22.605 5.22002 22.8733 4.97502 23.1933C4.7085 23.5407 4.51304 23.9372 4.3998 24.3602C4.28655 24.7831 4.25774 25.2242 4.31502 25.6583C4.40169 26.315 4.79002 26.9883 5.56502 28.3333C6.34335 29.6783 6.73169 30.35 7.25669 30.755C7.60408 31.0215 8.00058 31.217 8.42353 31.3302C8.84648 31.4435 9.2876 31.4723 9.72169 31.415C10.1217 31.3617 10.5267 31.1983 11.0867 30.9017C11.4875 30.6823 11.9374 30.5685 12.3942 30.5708C12.8511 30.5732 13.2998 30.6916 13.6984 30.915C14.5034 31.3817 14.9817 32.24 15.015 33.17C15.0384 33.8033 15.0984 34.2367 15.2534 34.6083C15.4209 35.013 15.6665 35.3807 15.9762 35.6905C16.2859 36.0002 16.6537 36.2458 17.0584 36.4133C17.67 36.6667 18.4467 36.6667 20 36.6667C21.5534 36.6667 22.33 36.6667 22.9417 36.4133C23.3464 36.2458 23.7141 36.0002 24.0238 35.6905C24.3335 35.3807 24.5792 35.013 24.7467 34.6083C24.9 34.2367 24.9617 33.8033 24.985 33.17C25.0184 32.24 25.4967 31.38 26.3017 30.915C26.7002 30.6916 27.1489 30.5732 27.6058 30.5708C28.0626 30.5685 28.5126 30.6823 28.9133 30.9017C29.4733 31.1983 29.88 31.3617 30.28 31.415C31.1562 31.5302 32.0422 31.2928 32.7434 30.755C33.2684 30.3517 33.6567 29.6783 34.4334 28.3333C34.78 27.7333 35.0484 27.2683 35.2484 26.8783M33.8984 22.2683C33.5081 22.0312 33.1846 21.6987 32.9581 21.3023C32.7316 20.9058 32.6095 20.4582 32.6034 20.0017C32.6034 19.07 33.11 18.2267 33.8984 17.7317C34.4334 17.395 34.7783 17.1267 35.025 16.8067C35.2915 16.4593 35.487 16.0628 35.6002 15.6398C35.7135 15.2169 35.7423 14.7757 35.685 14.3417C35.5983 13.685 35.21 13.0117 34.435 11.6667C33.6567 10.3217 33.2684 9.64999 32.7434 9.24499C32.396 8.97848 31.9995 8.78302 31.5765 8.66977C31.1536 8.55653 30.7124 8.52772 30.2784 8.58499C29.8784 8.63833 29.4734 8.80166 28.9117 9.09833C28.5111 9.31735 28.0615 9.43103 27.605 9.4287C27.1484 9.42637 26.7 9.3081 26.3017 9.085C25.9091 8.8515 25.5823 8.52206 25.352 8.12761C25.1217 7.73316 24.9954 7.28664 24.985 6.82999C24.9617 6.19666 24.9017 5.76333 24.7467 5.39166C24.5792 4.98696 24.3335 4.61925 24.0238 4.30953C23.7141 3.99982 23.3464 3.75418 22.9417 3.58666C22.33 3.33333 21.5534 3.33333 20 3.33333C18.4467 3.33333 17.67 3.33333 17.0584 3.58666C16.6537 3.75418 16.2859 3.99982 15.9762 4.30953C15.6665 4.61925 15.4209 4.98696 15.2534 5.39166C15.1 5.76333 15.0384 6.19666 15.015 6.82999C15.0046 7.28664 14.8784 7.73316 14.648 8.12761C14.4177 8.52206 14.0909 8.8515 13.6984 9.085C13.2998 9.3084 12.8511 9.42683 12.3942 9.42916C11.9374 9.4315 11.4875 9.31765 11.0867 9.09833C10.5267 8.80166 10.12 8.63833 9.72002 8.58499C8.84388 8.46978 7.95785 8.70717 7.25669 9.24499C6.73335 9.64999 6.34335 10.3217 5.56669 11.6667C5.22002 12.2667 4.95169 12.7317 4.75169 13.1217" stroke="black" stroke-opacity="0.5" stroke-width="2.5" stroke-linecap="round"/>
</svg>
