<svg width="20" height="20" viewBox="0 0 20 20" fill="none" xmlns="http://www.w3.org/2000/svg">
<g clip-path="url(#clip0_37_568)">
<path fill-rule="evenodd" clip-rule="evenodd" d="M8.74923 1.66669C7.61973 1.66678 6.50662 1.93699 5.50278 2.45477C4.49894 2.97254 3.63348 3.72287 2.9786 4.64315C2.32372 5.56343 1.89841 6.62698 1.73816 7.74506C1.57791 8.86314 1.68736 10.0033 2.05738 11.0705C2.42741 12.1377 3.04727 13.1009 3.86527 13.8798C4.68326 14.6587 5.67566 15.2307 6.75966 15.548C7.84367 15.8654 8.98785 15.9189 10.0968 15.7041C11.2056 15.4893 12.2471 15.0125 13.1342 14.3134L16.1776 17.3567C16.3347 17.5085 16.5452 17.5925 16.7637 17.5906C16.9822 17.5887 17.1912 17.501 17.3457 17.3465C17.5003 17.192 17.5879 16.983 17.5898 16.7645C17.5917 16.546 17.5077 16.3355 17.3559 16.1784L14.3126 13.135C15.1359 12.0905 15.6485 10.8354 15.7918 9.51313C15.9351 8.1909 15.7032 6.85504 15.1228 5.65843C14.5423 4.46183 13.6366 3.45282 12.5095 2.74688C11.3823 2.04094 10.0792 1.6666 8.74923 1.66669ZM3.33257 8.75002C3.33257 7.31343 3.90325 5.93568 4.91907 4.91986C5.9349 3.90404 7.31265 3.33335 8.74923 3.33335C10.1858 3.33335 11.5636 3.90404 12.5794 4.91986C13.5952 5.93568 14.1659 7.31343 14.1659 8.75002C14.1659 10.1866 13.5952 11.5644 12.5794 12.5802C11.5636 13.596 10.1858 14.1667 8.74923 14.1667C7.31265 14.1667 5.9349 13.596 4.91907 12.5802C3.90325 11.5644 3.33257 10.1866 3.33257 8.75002Z" fill="white"/>
</g>
<defs>
<clipPath id="clip0_37_568">
<rect width="20" height="20" fill="white" transform="translate(-0.0010376)"/>
</clipPath>
</defs>
</svg>
