<svg width="26" height="26" viewBox="0 0 26 26" fill="none" xmlns="http://www.w3.org/2000/svg">
<path fill-rule="evenodd" clip-rule="evenodd" d="M11.1053 2.47366C9.67855 2.47378 8.27252 2.8151 7.00452 3.46913C5.73651 4.12316 4.64329 5.07094 3.81607 6.2334C2.98886 7.39586 2.45162 8.73929 2.2492 10.1516C2.04678 11.5639 2.18503 13.0042 2.65243 14.3522C3.11983 15.7002 3.90282 16.9169 4.93607 17.9007C5.96933 18.8846 7.22288 19.6071 8.59216 20.008C9.96143 20.4088 11.4067 20.4764 12.8074 20.2052C14.2081 19.9339 15.5237 19.3315 16.6442 18.4484L20.4885 22.2926C20.687 22.4844 20.9529 22.5905 21.2289 22.5881C21.5049 22.5857 21.7689 22.475 21.9641 22.2798C22.1592 22.0846 22.2699 21.8206 22.2723 21.5446C22.2747 21.2686 22.1686 21.0027 21.9769 20.8042L18.1327 16.96C19.1727 15.6406 19.8202 14.0551 20.0012 12.385C20.1822 10.7148 19.8893 9.02737 19.1561 7.51587C18.4228 6.00436 17.2789 4.72983 15.8551 3.83812C14.4313 2.94641 12.7853 2.47355 11.1053 2.47366ZM4.26319 11.421C4.26319 9.60639 4.98406 7.86608 6.2672 6.58293C7.55034 5.29979 9.29066 4.57893 11.1053 4.57893C12.9199 4.57893 14.6603 5.29979 15.9434 6.58293C17.2265 7.86608 17.9474 9.60639 17.9474 11.421C17.9474 13.2357 17.2265 14.976 15.9434 16.2591C14.6603 17.5423 12.9199 18.2631 11.1053 18.2631C9.29066 18.2631 7.55034 17.5423 6.2672 16.2591C4.98406 14.976 4.26319 13.2357 4.26319 11.421Z" fill="#262626"/>
</svg>
