<svg width="98" height="104" viewBox="0 0 98 104" fill="none" xmlns="http://www.w3.org/2000/svg">
<g id="Group">
<path id="Vector" d="M49.0006 66.4C56.9535 66.4 63.4006 59.9529 63.4006 52C63.4006 44.0471 56.9535 37.6 49.0006 37.6C41.0477 37.6 34.6006 44.0471 34.6006 52C34.6006 59.9529 41.0477 66.4 49.0006 66.4Z" stroke="url(#paint0_linear_563_143)" stroke-width="7.2"/>
<path id="Vector_2" d="M8.97321 45.472C11.2436 46.8928 12.7028 49.3216 12.7028 52C12.7028 54.6784 11.2436 57.1072 8.97321 58.528C7.43241 59.5024 6.434 60.2752 5.7284 61.1968C4.96084 62.1973 4.39791 63.3392 4.07176 64.5573C3.74562 65.7754 3.66265 67.0458 3.8276 68.296C4.0772 70.1872 5.19561 72.1264 7.42761 76C9.66921 79.8736 10.7876 81.808 12.2996 82.9744C13.3001 83.742 14.442 84.3049 15.6601 84.631C16.8782 84.9572 18.1486 85.0402 19.3988 84.8752C20.5508 84.7216 21.7172 84.2512 23.33 83.3968C24.4842 82.7652 25.78 82.4373 27.0958 82.444C28.4115 82.4507 29.7039 82.7918 30.8516 83.4352C33.17 84.7792 34.5476 87.2512 34.6436 89.9296C34.7108 91.7536 34.8836 93.0016 35.33 94.072C35.8125 95.2375 36.5199 96.2966 37.4119 97.1885C38.3039 98.0805 39.3629 98.7879 40.5284 99.2704C42.29 100 44.5268 100 49.0004 100C53.474 100 55.7108 100 57.4724 99.2704C58.6379 98.7879 59.697 98.0805 60.5889 97.1885C61.4809 96.2966 62.1883 95.2375 62.6708 94.072C63.1124 93.0016 63.29 91.7536 63.3572 89.9296C63.4532 87.2512 64.8308 84.7744 67.1492 83.4352C68.2969 82.7918 69.5893 82.4507 70.905 82.444C72.2208 82.4373 73.5166 82.7652 74.6708 83.3968C76.2836 84.2512 77.4548 84.7216 78.6068 84.8752C81.1301 85.207 83.6818 84.5233 85.7012 82.9744C87.2132 81.8128 88.3316 79.8736 90.5684 76C91.5668 74.272 92.3396 72.9328 92.9156 71.8096M89.0276 58.5328C87.9038 57.8498 86.972 56.8924 86.3196 55.7505C85.6673 54.6087 85.3157 53.3198 85.298 52.0048C85.298 49.3216 86.7572 46.8928 89.0276 45.4672C90.5684 44.4976 91.562 43.7248 92.2724 42.8032C93.04 41.8027 93.6029 40.6608 93.9291 39.4427C94.2552 38.2246 94.3382 36.9542 94.1732 35.704C93.9236 33.8128 92.8052 31.8736 90.5732 28C88.3316 24.1264 87.2132 22.192 85.7012 21.0256C84.7007 20.258 83.5588 19.6951 82.3407 19.369C81.1226 19.0428 79.8522 18.9598 78.602 19.1248C77.45 19.2784 76.2836 19.7488 74.666 20.6032C73.5124 21.234 72.2174 21.5614 70.9026 21.5547C69.5879 21.548 68.2963 21.2073 67.1492 20.5648C66.0186 19.8923 65.0774 18.9436 64.4141 17.8075C63.7508 16.6715 63.3871 15.3856 63.3572 14.0704C63.29 12.2464 63.1172 10.9984 62.6708 9.928C62.1883 8.76247 61.4809 7.70345 60.5889 6.81147C59.697 5.9195 58.6379 5.21206 57.4724 4.7296C55.7108 4 53.474 4 49.0004 4C44.5268 4 42.29 4 40.5284 4.7296C39.3629 5.21206 38.3039 5.9195 37.4119 6.81147C36.5199 7.70345 35.8125 8.76247 35.33 9.928C34.8884 10.9984 34.7108 12.2464 34.6436 14.0704C34.6137 15.3856 34.25 16.6715 33.5867 17.8075C32.9234 18.9436 31.9822 19.8923 30.8516 20.5648C29.7039 21.2082 28.4115 21.5493 27.0958 21.556C25.78 21.5627 24.4842 21.2349 23.33 20.6032C21.7172 19.7488 20.546 19.2784 19.394 19.1248C16.8707 18.793 14.319 19.4767 12.2996 21.0256C10.7924 22.192 9.6692 24.1264 7.4324 28C6.434 29.728 5.66121 31.0672 5.08521 32.1904" stroke="url(#paint1_linear_563_143)" stroke-width="7.2" stroke-linecap="round"/>
</g>
<defs>
<linearGradient id="paint0_linear_563_143" x1="34.6006" y1="52" x2="63.4006" y2="52" gradientUnits="userSpaceOnUse">
<stop stop-color="#DBA568"/>
<stop offset="1" stop-color="#AD7033"/>
</linearGradient>
<linearGradient id="paint1_linear_563_143" x1="3.74512" y1="52" x2="94.2557" y2="52" gradientUnits="userSpaceOnUse">
<stop stop-color="#DBA568"/>
<stop offset="1" stop-color="#AD7033"/>
</linearGradient>
</defs>
</svg>
