<svg width="98" height="104" viewBox="0 0 98 104" fill="none" xmlns="http://www.w3.org/2000/svg">
<g id="Group">
<path id="Vector" d="M49.0006 66.3996C56.9535 66.3996 63.4006 59.9525 63.4006 51.9996C63.4006 44.0467 56.9535 37.5996 49.0006 37.5996C41.0477 37.5996 34.6006 44.0467 34.6006 51.9996C34.6006 59.9525 41.0477 66.3996 49.0006 66.3996Z" stroke="url(#paint0_linear_563_304)" stroke-width="7.2"/>
<path id="Vector_2" d="M8.97321 45.4718C11.2436 46.8926 12.7028 49.3214 12.7028 51.9998C12.7028 54.6782 11.2436 57.107 8.97321 58.5278C7.43241 59.5022 6.434 60.275 5.7284 61.1966C4.96084 62.1971 4.39791 63.339 4.07176 64.5571C3.74562 65.7752 3.66265 67.0456 3.8276 68.2958C4.0772 70.187 5.19561 72.1262 7.42761 75.9998C9.66921 79.8734 10.7876 81.8078 12.2996 82.9742C13.3001 83.7417 14.442 84.3047 15.6601 84.6308C16.8782 84.9569 18.1486 85.0399 19.3988 84.875C20.5508 84.7214 21.7172 84.251 23.33 83.3966C24.4842 82.7649 25.78 82.437 27.0958 82.4438C28.4115 82.4505 29.7039 82.7916 30.8516 83.435C33.17 84.779 34.5476 87.251 34.6436 89.9294C34.7108 91.7534 34.8836 93.0014 35.33 94.0718C35.8125 95.2373 36.5199 96.2963 37.4119 97.1883C38.3039 98.0803 39.3629 98.7877 40.5284 99.2702C42.29 99.9998 44.5268 99.9998 49.0004 99.9998C53.474 99.9998 55.7108 99.9998 57.4724 99.2702C58.6379 98.7877 59.697 98.0803 60.5889 97.1883C61.4809 96.2963 62.1883 95.2373 62.6708 94.0718C63.1124 93.0014 63.29 91.7534 63.3572 89.9294C63.4532 87.251 64.8308 84.7742 67.1492 83.435C68.2969 82.7916 69.5893 82.4505 70.905 82.4438C72.2208 82.437 73.5166 82.7649 74.6708 83.3966C76.2836 84.251 77.4548 84.7214 78.6068 84.875C81.1301 85.2068 83.6818 84.5231 85.7012 82.9742C87.2132 81.8126 88.3316 79.8734 90.5684 75.9998C91.5668 74.2718 92.3396 72.9326 92.9156 71.8094M89.0276 58.5326C87.9038 57.8495 86.972 56.8921 86.3196 55.7503C85.6673 54.6084 85.3157 53.3195 85.298 52.0046C85.298 49.3214 86.7572 46.8926 89.0276 45.467C90.5684 44.4974 91.562 43.7246 92.2724 42.803C93.04 41.8025 93.6029 40.6606 93.9291 39.4425C94.2552 38.2244 94.3382 36.9539 94.1732 35.7038C93.9236 33.8126 92.8052 31.8734 90.5732 27.9998C88.3316 24.1262 87.2132 22.1918 85.7012 21.0254C84.7007 20.2578 83.5588 19.6949 82.3407 19.3687C81.1226 19.0426 79.8522 18.9596 78.602 19.1246C77.45 19.2782 76.2836 19.7486 74.666 20.603C73.5124 21.2338 72.2174 21.5611 70.9026 21.5544C69.5879 21.5477 68.2963 21.2071 67.1492 20.5646C66.0186 19.8921 65.0774 18.9433 64.4141 17.8073C63.7508 16.6713 63.3871 15.3853 63.3572 14.0702C63.29 12.2462 63.1172 10.9982 62.6708 9.92776C62.1883 8.76222 61.4809 7.7032 60.5889 6.81123C59.697 5.91925 58.6379 5.21182 57.4724 4.72936C55.7108 3.99976 53.474 3.99976 49.0004 3.99976C44.5268 3.99976 42.29 3.99976 40.5284 4.72936C39.3629 5.21182 38.3039 5.91925 37.4119 6.81123C36.5199 7.7032 35.8125 8.76222 35.33 9.92776C34.8884 10.9982 34.7108 12.2462 34.6436 14.0702C34.6137 15.3853 34.25 16.6713 33.5867 17.8073C32.9234 18.9433 31.9822 19.8921 30.8516 20.5646C29.7039 21.208 28.4115 21.549 27.0958 21.5558C25.78 21.5625 24.4842 21.2346 23.33 20.603C21.7172 19.7486 20.546 19.2782 19.394 19.1246C16.8707 18.7927 14.319 19.4764 12.2996 21.0254C10.7924 22.1918 9.6692 24.1262 7.4324 27.9998C6.434 29.7278 5.66121 31.067 5.08521 32.1902" stroke="url(#paint1_linear_563_304)" stroke-width="7.2" stroke-linecap="round"/>
</g>
<defs>
<linearGradient id="paint0_linear_563_304" x1="34.6006" y1="51.9996" x2="63.4006" y2="51.9996" gradientUnits="userSpaceOnUse">
<stop stop-color="#DB6868"/>
<stop offset="1" stop-color="#AD3333"/>
</linearGradient>
<linearGradient id="paint1_linear_563_304" x1="3.74512" y1="51.9998" x2="94.2557" y2="51.9998" gradientUnits="userSpaceOnUse">
<stop stop-color="#DB6868"/>
<stop offset="1" stop-color="#AD3333"/>
</linearGradient>
</defs>
</svg>
